<?xml version="1.0" standalone="no"?> <!DOCTYPE svg PUBLIC "-//W3C//DTD SVG 1.1//EN" "http://www.w3.org/Graphics/SVG/1.1/DTD/svg11.dtd">  <svg id="svg" width="744.0945" height="1052.362"> 	<path d="M70.86614,93.4092951121795 A4.82662011217949,4.82662011217949 0 1,1 80.519380224359,93.4092951121795 L80.519380224359,88.582675 L70.86614,88.582675 Z" style="fill:white; stroke:white; stroke-width:0.75"/> <path d="M95.9645645833333,107.847367796533 A4.82662011217949,4.82662011217949 0 1,1 105.617804807692,107.847367796533 L105.617804807692,103.020747684354 L95.9645645833333,103.020747684354 Z" style="fill:white; stroke:white; stroke-width:0.75"/> <path d="M121.062989166667,201.564964918886 A4.82662011217949,4.82662011217949 0 1,1 130.716229391026,201.564964918886 L130.716229391026,196.738344806707 L121.062989166667,196.738344806707 Z" style="fill:white; stroke:white; stroke-width:0.75"/> <path d="M146.16141375,218.817067401441 A4.82662011217949,4.82662011217949 0 1,1 155.814653974359,218.817067401441 L155.814653974359,213.990447289262 L146.16141375,213.990447289262 Z" style="fill:white; stroke:white; stroke-width:0.75"/> <path d="M171.259838333333,237.340056346996 A4.82662011217949,4.82662011217949 0 1,1 180.913078557692,237.340056346996 L180.913078557692,232.513436234816 L171.259838333333,232.513436234816 Z" style="fill:white; stroke:white; stroke-width:0.75"/> <path d="M196.358262916667,260.252357149158 A4.82662011217949,4.82662011217949 0 1,1 206.011503141026,260.252357149158 L206.011503141026,255.425737036978 L196.358262916667,255.425737036978 Z" style="fill:white; stroke:white; stroke-width:0.75"/> <path d="M221.4566875,284.718277220809 A4.82662011217949,4.82662011217949 0 1,1 231.109927724359,284.718277220809 L231.109927724359,279.89165710863 L221.4566875,279.89165710863 Z" style="fill:white; stroke:white; stroke-width:0.75"/> <path d="M246.555112083333,315.049463039823 A4.82662011217949,4.82662011217949 0 1,1 256.208352307692,315.049463039823 L256.208352307692,310.222842927644 L246.555112083333,310.222842927644 Z" style="fill:white; stroke:white; stroke-width:0.75"/> <path d="M271.653536666667,329.447028208959 A4.82662011217949,4.82662011217949 0 1,1 281.306776891026,329.447028208959 L281.306776891026,324.62040809678 L271.653536666667,324.62040809678 Z" style="fill:white; stroke:white; stroke-width:0.75"/> <path d="M296.75196125,339.261774555148 A4.82662011217949,4.82662011217949 0 1,1 306.405201474359,339.261774555148 L306.405201474359,334.435154442969 L296.75196125,334.435154442969 Z" style="fill:white; stroke:white; stroke-width:0.75"/> <path d="M321.850385833333,336.509466732938 A4.82662011217949,4.82662011217949 0 1,1 331.503626057692,336.509466732938 L331.503626057692,331.682846620759 L321.850385833333,331.682846620759 Z" style="fill:white; stroke:white; stroke-width:0.75"/> <path d="M346.948810416667,340.376431469496 A4.82662011217949,4.82662011217949 0 1,1 356.602050641026,340.376431469496 L356.602050641026,335.549811357317 L346.948810416667,335.549811357317 Z" style="fill:white; stroke:white; stroke-width:0.75"/> <path d="M372.047235,380.749407681072 A4.82662011217949,4.82662011217949 0 1,1 381.700475224359,380.749407681072 L381.700475224359,375.922787568892 L372.047235,375.922787568892 Z" style="fill:white; stroke:white; stroke-width:0.75"/> <path d="M397.145659583333,396.378148114169 A4.82662011217949,4.82662011217949 0 1,1 406.798899807692,396.378148114169 L406.798899807692,391.551528001989 L397.145659583333,391.551528001989 Z" style="fill:white; stroke:white; stroke-width:0.75"/> <path d="M422.244084166667,407.164771670361 A4.82662011217949,4.82662011217949 0 1,1 431.897324391026,407.164771670361 L431.897324391026,402.338151558181 L422.244084166667,402.338151558181 Z" style="fill:white; stroke:white; stroke-width:0.75"/> <path d="M447.34250875,432.042380801754 A4.82662011217949,4.82662011217949 0 1,1 456.995748974359,432.042380801754 L456.995748974359,427.215760689574 L447.34250875,427.215760689574 Z" style="fill:white; stroke:white; stroke-width:0.75"/> <path d="M472.440933333333,447.159373873052 A4.82662011217949,4.82662011217949 0 1,1 482.094173557692,447.159373873052 L482.094173557692,442.332753760873 L472.440933333333,442.332753760873 Z" style="fill:white; stroke:white; stroke-width:0.75"/> <path d="M497.539357916667,453.316746754897 A4.82662011217949,4.82662011217949 0 1,1 507.192598141026,453.316746754897 L507.192598141026,448.490126642717 L497.539357916667,448.490126642717 Z" style="fill:white; stroke:white; stroke-width:0.75"/> <path d="M522.6377825,499.762835776081 A4.82662011217949,4.82662011217949 0 1,1 532.291022724359,499.762835776081 L532.291022724359,494.936215663901 L522.6377825,494.936215663901 Z" style="fill:white; stroke:white; stroke-width:0.75"/> <path d="M547.736207083333,487.32375580881 A4.82662011217949,4.82662011217949 0 1,1 557.389447307692,487.32375580881 L557.389447307692,482.49713569663 L547.736207083333,482.49713569663 Z" style="fill:white; stroke:white; stroke-width:0.75"/> <path d="M572.834631666667,525.184392904459 A4.82662011217949,4.82662011217949 0 1,1 582.487871891026,525.184392904459 L582.487871891026,520.357772792279 L572.834631666667,520.357772792279 Z" style="fill:white; stroke:white; stroke-width:0.75"/> <path d="M597.93305625,516.413205033739 A4.82662011217949,4.82662011217949 0 1,1 607.586296474359,516.413205033739 L607.586296474359,511.586584921559 L597.93305625,511.586584921559 Z" style="fill:white; stroke:white; stroke-width:0.75"/> <path d="M623.031480833333,291.774274763792 A4.82662011217949,4.82662011217949 0 1,1 632.684721057692,291.774274763792 L632.684721057692,286.947654651613 L623.031480833333,286.947654651613 Z" style="fill:white; stroke:white; stroke-width:0.75"/> <path d="M648.129905416667,502.730770221274 A4.82662011217949,4.82662011217949 0 1,1 657.783145641026,502.730770221274 L657.783145641026,497.904150109095 L648.129905416667,497.904150109095 Z" style="fill:white; stroke:white; stroke-width:0.75"/><path d="M70.86614,615.25210488782 A4.82662011217949,4.82662011217949 0 0,0 80.519380224359,615.25210488782 L80.519380224359,620.078725 L70.86614,620.078725 Z" style="fill:white; stroke:white; stroke-width:0.75"/> <path d="M95.9645645833333,615.25210488782 A4.82662011217949,4.82662011217949 0 0,0 105.617804807692,615.25210488782 L105.617804807692,620.078725 L95.9645645833333,620.078725 Z" style="fill:white; stroke:white; stroke-width:0.75"/> <path d="M121.062989166667,615.25210488782 A4.82662011217949,4.82662011217949 0 0,0 130.716229391026,615.25210488782 L130.716229391026,620.078725 L121.062989166667,620.078725 Z" style="fill:white; stroke:white; stroke-width:0.75"/> <path d="M146.16141375,615.25210488782 A4.82662011217949,4.82662011217949 0 0,0 155.814653974359,615.25210488782 L155.814653974359,620.078725 L146.16141375,620.078725 Z" style="fill:white; stroke:white; stroke-width:0.75"/> <path d="M171.259838333333,615.25210488782 A4.82662011217949,4.82662011217949 0 0,0 180.913078557692,615.25210488782 L180.913078557692,620.078725 L171.259838333333,620.078725 Z" style="fill:white; stroke:white; stroke-width:0.75"/> <path d="M196.358262916667,615.25210488782 A4.82662011217949,4.82662011217949 0 0,0 206.011503141026,615.25210488782 L206.011503141026,620.078725 L196.358262916667,620.078725 Z" style="fill:white; stroke:white; stroke-width:0.75"/> <path d="M221.4566875,615.25210488782 A4.82662011217949,4.82662011217949 0 0,0 231.109927724359,615.25210488782 L231.109927724359,620.078725 L221.4566875,620.078725 Z" style="fill:white; stroke:white; stroke-width:0.75"/> <path d="M246.555112083333,615.25210488782 A4.82662011217949,4.82662011217949 0 0,0 256.208352307692,615.25210488782 L256.208352307692,620.078725 L246.555112083333,620.078725 Z" style="fill:white; stroke:white; stroke-width:0.75"/> <path d="M271.653536666667,615.25210488782 A4.82662011217949,4.82662011217949 0 0,0 281.306776891026,615.25210488782 L281.306776891026,620.078725 L271.653536666667,620.078725 Z" style="fill:white; stroke:white; stroke-width:0.75"/> <path d="M296.75196125,615.25210488782 A4.82662011217949,4.82662011217949 0 0,0 306.405201474359,615.25210488782 L306.405201474359,620.078725 L296.75196125,620.078725 Z" style="fill:white; stroke:white; stroke-width:0.75"/> <path d="M321.850385833333,615.25210488782 A4.82662011217949,4.82662011217949 0 0,0 331.503626057692,615.25210488782 L331.503626057692,620.078725 L321.850385833333,620.078725 Z" style="fill:white; stroke:white; stroke-width:0.75"/> <path d="M346.948810416667,615.25210488782 A4.82662011217949,4.82662011217949 0 0,0 356.602050641026,615.25210488782 L356.602050641026,620.078725 L346.948810416667,620.078725 Z" style="fill:white; stroke:white; stroke-width:0.75"/> <path d="M372.047235,615.25210488782 A4.82662011217949,4.82662011217949 0 0,0 381.700475224359,615.25210488782 L381.700475224359,620.078725 L372.047235,620.078725 Z" style="fill:white; stroke:white; stroke-width:0.75"/> <path d="M397.145659583333,615.25210488782 A4.82662011217949,4.82662011217949 0 0,0 406.798899807692,615.25210488782 L406.798899807692,620.078725 L397.145659583333,620.078725 Z" style="fill:white; stroke:white; stroke-width:0.75"/> <path d="M422.244084166667,615.25210488782 A4.82662011217949,4.82662011217949 0 0,0 431.897324391026,615.25210488782 L431.897324391026,620.078725 L422.244084166667,620.078725 Z" style="fill:white; stroke:white; stroke-width:0.75"/> <path d="M447.34250875,615.25210488782 A4.82662011217949,4.82662011217949 0 0,0 456.995748974359,615.25210488782 L456.995748974359,620.078725 L447.34250875,620.078725 Z" style="fill:white; stroke:white; stroke-width:0.75"/> <path d="M472.440933333333,615.25210488782 A4.82662011217949,4.82662011217949 0 0,0 482.094173557692,615.25210488782 L482.094173557692,620.078725 L472.440933333333,620.078725 Z" style="fill:white; stroke:white; stroke-width:0.75"/> <path d="M497.539357916667,615.25210488782 A4.82662011217949,4.82662011217949 0 0,0 507.192598141026,615.25210488782 L507.192598141026,620.078725 L497.539357916667,620.078725 Z" style="fill:white; stroke:white; stroke-width:0.75"/> <path d="M522.6377825,615.25210488782 A4.82662011217949,4.82662011217949 0 0,0 532.291022724359,615.25210488782 L532.291022724359,620.078725 L522.6377825,620.078725 Z" style="fill:white; stroke:white; stroke-width:0.75"/> <path d="M547.736207083333,615.25210488782 A4.82662011217949,4.82662011217949 0 0,0 557.389447307692,615.25210488782 L557.389447307692,620.078725 L547.736207083333,620.078725 Z" style="fill:white; stroke:white; stroke-width:0.75"/> <path d="M572.834631666667,615.25210488782 A4.82662011217949,4.82662011217949 0 0,0 582.487871891026,615.25210488782 L582.487871891026,620.078725 L572.834631666667,620.078725 Z" style="fill:white; stroke:white; stroke-width:0.75"/> <path d="M597.93305625,615.25210488782 A4.82662011217949,4.82662011217949 0 0,0 607.586296474359,615.25210488782 L607.586296474359,620.078725 L597.93305625,620.078725 Z" style="fill:white; stroke:white; stroke-width:0.75"/> <path d="M623.031480833333,615.25210488782 A4.82662011217949,4.82662011217949 0 0,0 632.684721057692,615.25210488782 L632.684721057692,620.078725 L623.031480833333,620.078725 Z" style="fill:white; stroke:white; stroke-width:0.75"/> <path d="M648.129905416667,615.25210488782 A4.82662011217949,4.82662011217949 0 0,0 657.783145641026,615.25210488782 L657.783145641026,620.078725 L648.129905416667,620.078725 Z" style="fill:white; stroke:white; stroke-width:0.75"/><path d="M70.86614,349.096464654267 L80.519380224359,355.301037950044 L80.519380224359,349.096464654267 L70.86614,355.301037950044 Z" style="fill:white; stroke:white; stroke-width:0.75"/> <path d="M95.9645645833333,299.832842470674 L105.617804807692,303.8942940908 L105.617804807692,299.832842470674 L95.9645645833333,303.8942940908 Z" style="fill:white; stroke:white; stroke-width:0.75"/> <path d="M121.062989166667,390.528095190374 L130.716229391026,396.68324778046 L130.716229391026,390.528095190374 L121.062989166667,396.68324778046 Z" style="fill:white; stroke:white; stroke-width:0.75"/> <path d="M146.16141375,320.120523575701 L155.814653974359,324.458397249972 L155.814653974359,320.120523575701 L146.16141375,324.458397249972 Z" style="fill:white; stroke:white; stroke-width:0.75"/> <path d="M171.259838333333,331.755994559723 L180.913078557692,339.385914038431 L180.913078557692,331.755994559723 L171.259838333333,339.385914038431 Z" style="fill:white; stroke:white; stroke-width:0.75"/> <path d="M196.358262916667,380.432193725781 L206.011503141026,383.156419127038 L206.011503141026,380.432193725781 L196.358262916667,383.156419127038 Z" style="fill:white; stroke:white; stroke-width:0.75"/> <path d="M221.4566875,404.077812062972 L231.109927724359,411.247576074725 L231.109927724359,404.077812062972 L221.4566875,411.247576074725 Z" style="fill:white; stroke:white; stroke-width:0.75"/> <path d="M246.555112083333,404.230303408865 L256.208352307692,408.166028873268 L256.208352307692,404.230303408865 L246.555112083333,408.166028873268 Z" style="fill:white; stroke:white; stroke-width:0.75"/> <path d="M271.653536666667,417.252762900793 L281.306776891026,421.797791931031 L281.306776891026,417.252762900793 L271.653536666667,421.797791931031 Z" style="fill:white; stroke:white; stroke-width:0.75"/> <path d="M296.75196125,419.162089989167 L306.405201474359,423.232992793538 L306.405201474359,419.162089989167 L296.75196125,423.232992793538 Z" style="fill:white; stroke:white; stroke-width:0.75"/> <path d="M321.850385833333,440.729803451321 L331.503626057692,447.87471513965 L331.503626057692,440.729803451321 L321.850385833333,447.87471513965 Z" style="fill:white; stroke:white; stroke-width:0.75"/> <path d="M346.948810416667,409.778876560312 L356.602050641026,414.936454198185 L356.602050641026,409.778876560312 L346.948810416667,414.936454198185 Z" style="fill:white; stroke:white; stroke-width:0.75"/> <path d="M372.047235,410.081122315525 L381.700475224359,414.460323305048 L381.700475224359,410.081122315525 L372.047235,414.460323305048 Z" style="fill:white; stroke:white; stroke-width:0.75"/> <path d="M397.145659583333,425.709862748622 L406.798899807692,430.350108136966 L406.798899807692,425.709862748622 L397.145659583333,430.350108136966 Z" style="fill:white; stroke:white; stroke-width:0.75"/> <path d="M422.244084166667,438.810015372932 L431.897324391026,444.449515876579 L431.897324391026,438.810015372932 L422.244084166667,444.449515876579 Z" style="fill:white; stroke:white; stroke-width:0.75"/> <path d="M447.34250875,504.736303814692 L456.995748974359,508.90898137744 L456.995748974359,504.736303814692 L447.34250875,508.90898137744 Z" style="fill:white; stroke:white; stroke-width:0.75"/> <path d="M472.440933333333,491.037584016137 L482.094173557692,499.155493734828 L482.094173557692,491.037584016137 L472.440933333333,499.155493734828 Z" style="fill:white; stroke:white; stroke-width:0.75"/> <path d="M497.539357916667,481.497536863085 L507.192598141026,493.026630253121 L507.192598141026,481.497536863085 L497.539357916667,493.026630253121 Z" style="fill:white; stroke:white; stroke-width:0.75"/> <path d="M522.6377825,547.238988150843 L532.291022724359,552.985901672996 L532.291022724359,547.238988150843 L522.6377825,552.985901672996 Z" style="fill:white; stroke:white; stroke-width:0.75"/> <path d="M547.736207083333,538.935739577609 L557.389447307692,546.625882335371 L557.389447307692,538.935739577609 L547.736207083333,546.625882335371 Z" style="fill:white; stroke:white; stroke-width:0.75"/> <path d="M572.834631666667,543.552477626959 L582.487871891026,547.931678616482 L582.487871891026,543.552477626959 L572.834631666667,547.931678616482 Z" style="fill:white; stroke:white; stroke-width:0.75"/> <path d="M597.93305625,539.243708988788 L607.586296474359,543.725987023201 L607.586296474359,539.243708988788 L597.93305625,543.725987023201 Z" style="fill:white; stroke:white; stroke-width:0.75"/> <path d="M623.031480833333,412.064466245503 L632.684721057692,420.191936028131 L632.684721057692,412.064466245503 L623.031480833333,420.191936028131 Z" style="fill:white; stroke:white; stroke-width:0.75"/> <path d="M648.129905416667,519.929751778737 L657.783145641026,520.414575968067 L657.783145641026,519.929751778737 L648.129905416667,520.414575968067 Z" style="fill:white; stroke:white; stroke-width:0.75"/><path d="M70.86614,93.4092951121795 A4.82662011217949,4.82662011217949 0 1,1 80.519380224359,93.4092951121795 L80.519380224359,349.096464654267 L70.86614,355.301037950044 L70.86614,615.25210488782 A4.82662011217949,4.82662011217949 0 0,0 80.519380224359,615.25210488782 L80.519380224359,355.301037950044 L70.86614,349.096464654267 Z" style="fill:none; stroke:grey; stroke-width:1"/> <path d="M95.9645645833333,107.847367796533 A4.82662011217949,4.82662011217949 0 1,1 105.617804807692,107.847367796533 L105.617804807692,299.832842470674 L95.9645645833333,303.8942940908 L95.9645645833333,615.25210488782 A4.82662011217949,4.82662011217949 0 0,0 105.617804807692,615.25210488782 L105.617804807692,303.8942940908 L95.9645645833333,299.832842470674 Z" style="fill:none; stroke:grey; stroke-width:1"/> <path d="M121.062989166667,201.564964918886 A4.82662011217949,4.82662011217949 0 1,1 130.716229391026,201.564964918886 L130.716229391026,390.528095190374 L121.062989166667,396.68324778046 L121.062989166667,615.25210488782 A4.82662011217949,4.82662011217949 0 0,0 130.716229391026,615.25210488782 L130.716229391026,396.68324778046 L121.062989166667,390.528095190374 Z" style="fill:none; stroke:grey; stroke-width:1"/> <path d="M146.16141375,218.817067401441 A4.82662011217949,4.82662011217949 0 1,1 155.814653974359,218.817067401441 L155.814653974359,320.120523575701 L146.16141375,324.458397249972 L146.16141375,615.25210488782 A4.82662011217949,4.82662011217949 0 0,0 155.814653974359,615.25210488782 L155.814653974359,324.458397249972 L146.16141375,320.120523575701 Z" style="fill:none; stroke:grey; stroke-width:1"/> <path d="M171.259838333333,237.340056346996 A4.82662011217949,4.82662011217949 0 1,1 180.913078557692,237.340056346996 L180.913078557692,331.755994559723 L171.259838333333,339.385914038431 L171.259838333333,615.25210488782 A4.82662011217949,4.82662011217949 0 0,0 180.913078557692,615.25210488782 L180.913078557692,339.385914038431 L171.259838333333,331.755994559723 Z" style="fill:none; stroke:grey; stroke-width:1"/> <path d="M196.358262916667,260.252357149158 A4.82662011217949,4.82662011217949 0 1,1 206.011503141026,260.252357149158 L206.011503141026,380.432193725781 L196.358262916667,383.156419127038 L196.358262916667,615.25210488782 A4.82662011217949,4.82662011217949 0 0,0 206.011503141026,615.25210488782 L206.011503141026,383.156419127038 L196.358262916667,380.432193725781 Z" style="fill:none; stroke:grey; stroke-width:1"/> <path d="M221.4566875,284.718277220809 A4.82662011217949,4.82662011217949 0 1,1 231.109927724359,284.718277220809 L231.109927724359,404.077812062972 L221.4566875,411.247576074725 L221.4566875,615.25210488782 A4.82662011217949,4.82662011217949 0 0,0 231.109927724359,615.25210488782 L231.109927724359,411.247576074725 L221.4566875,404.077812062972 Z" style="fill:none; stroke:grey; stroke-width:1"/> <path d="M246.555112083333,315.049463039823 A4.82662011217949,4.82662011217949 0 1,1 256.208352307692,315.049463039823 L256.208352307692,404.230303408865 L246.555112083333,408.166028873268 L246.555112083333,615.25210488782 A4.82662011217949,4.82662011217949 0 0,0 256.208352307692,615.25210488782 L256.208352307692,408.166028873268 L246.555112083333,404.230303408865 Z" style="fill:none; stroke:grey; stroke-width:1"/> <path d="M271.653536666667,329.447028208959 A4.82662011217949,4.82662011217949 0 1,1 281.306776891026,329.447028208959 L281.306776891026,417.252762900793 L271.653536666667,421.797791931031 L271.653536666667,615.25210488782 A4.82662011217949,4.82662011217949 0 0,0 281.306776891026,615.25210488782 L281.306776891026,421.797791931031 L271.653536666667,417.252762900793 Z" style="fill:none; stroke:grey; stroke-width:1"/> <path d="M296.75196125,339.261774555148 A4.82662011217949,4.82662011217949 0 1,1 306.405201474359,339.261774555148 L306.405201474359,419.162089989167 L296.75196125,423.232992793538 L296.75196125,615.25210488782 A4.82662011217949,4.82662011217949 0 0,0 306.405201474359,615.25210488782 L306.405201474359,423.232992793538 L296.75196125,419.162089989167 Z" style="fill:none; stroke:grey; stroke-width:1"/> <path d="M321.850385833333,336.509466732938 A4.82662011217949,4.82662011217949 0 1,1 331.503626057692,336.509466732938 L331.503626057692,440.729803451321 L321.850385833333,447.87471513965 L321.850385833333,615.25210488782 A4.82662011217949,4.82662011217949 0 0,0 331.503626057692,615.25210488782 L331.503626057692,447.87471513965 L321.850385833333,440.729803451321 Z" style="fill:none; stroke:grey; stroke-width:1"/> <path d="M346.948810416667,340.376431469496 A4.82662011217949,4.82662011217949 0 1,1 356.602050641026,340.376431469496 L356.602050641026,409.778876560312 L346.948810416667,414.936454198185 L346.948810416667,615.25210488782 A4.82662011217949,4.82662011217949 0 0,0 356.602050641026,615.25210488782 L356.602050641026,414.936454198185 L346.948810416667,409.778876560312 Z" style="fill:none; stroke:grey; stroke-width:1"/> <path d="M372.047235,380.749407681072 A4.82662011217949,4.82662011217949 0 1,1 381.700475224359,380.749407681072 L381.700475224359,410.081122315525 L372.047235,414.460323305048 L372.047235,615.25210488782 A4.82662011217949,4.82662011217949 0 0,0 381.700475224359,615.25210488782 L381.700475224359,414.460323305048 L372.047235,410.081122315525 Z" style="fill:none; stroke:grey; stroke-width:1"/> <path d="M397.145659583333,396.378148114169 A4.82662011217949,4.82662011217949 0 1,1 406.798899807692,396.378148114169 L406.798899807692,425.709862748622 L397.145659583333,430.350108136966 L397.145659583333,615.25210488782 A4.82662011217949,4.82662011217949 0 0,0 406.798899807692,615.25210488782 L406.798899807692,430.350108136966 L397.145659583333,425.709862748622 Z" style="fill:none; stroke:grey; stroke-width:1"/> <path d="M422.244084166667,407.164771670361 A4.82662011217949,4.82662011217949 0 1,1 431.897324391026,407.164771670361 L431.897324391026,438.810015372932 L422.244084166667,444.449515876579 L422.244084166667,615.25210488782 A4.82662011217949,4.82662011217949 0 0,0 431.897324391026,615.25210488782 L431.897324391026,444.449515876579 L422.244084166667,438.810015372932 Z" style="fill:none; stroke:grey; stroke-width:1"/> <path d="M447.34250875,432.042380801754 A4.82662011217949,4.82662011217949 0 1,1 456.995748974359,432.042380801754 L456.995748974359,504.736303814692 L447.34250875,508.90898137744 L447.34250875,615.25210488782 A4.82662011217949,4.82662011217949 0 0,0 456.995748974359,615.25210488782 L456.995748974359,508.90898137744 L447.34250875,504.736303814692 Z" style="fill:none; stroke:grey; stroke-width:1"/> <path d="M472.440933333333,447.159373873052 A4.82662011217949,4.82662011217949 0 1,1 482.094173557692,447.159373873052 L482.094173557692,491.037584016137 L472.440933333333,499.155493734828 L472.440933333333,615.25210488782 A4.82662011217949,4.82662011217949 0 0,0 482.094173557692,615.25210488782 L482.094173557692,499.155493734828 L472.440933333333,491.037584016137 Z" style="fill:none; stroke:grey; stroke-width:1"/> <path d="M497.539357916667,453.316746754897 A4.82662011217949,4.82662011217949 0 1,1 507.192598141026,453.316746754897 L507.192598141026,481.497536863085 L497.539357916667,493.026630253121 L497.539357916667,615.25210488782 A4.82662011217949,4.82662011217949 0 0,0 507.192598141026,615.25210488782 L507.192598141026,493.026630253121 L497.539357916667,481.497536863085 Z" style="fill:none; stroke:grey; stroke-width:1"/> <path d="M522.6377825,499.762835776081 A4.82662011217949,4.82662011217949 0 1,1 532.291022724359,499.762835776081 L532.291022724359,547.238988150843 L522.6377825,552.985901672996 L522.6377825,615.25210488782 A4.82662011217949,4.82662011217949 0 0,0 532.291022724359,615.25210488782 L532.291022724359,552.985901672996 L522.6377825,547.238988150843 Z" style="fill:none; stroke:grey; stroke-width:1"/> <path d="M547.736207083333,487.32375580881 A4.82662011217949,4.82662011217949 0 1,1 557.389447307692,487.32375580881 L557.389447307692,538.935739577609 L547.736207083333,546.625882335371 L547.736207083333,615.25210488782 A4.82662011217949,4.82662011217949 0 0,0 557.389447307692,615.25210488782 L557.389447307692,546.625882335371 L547.736207083333,538.935739577609 Z" style="fill:none; stroke:grey; stroke-width:1"/> <path d="M572.834631666667,525.184392904459 A4.82662011217949,4.82662011217949 0 1,1 582.487871891026,525.184392904459 L582.487871891026,543.552477626959 L572.834631666667,547.931678616482 L572.834631666667,615.25210488782 A4.82662011217949,4.82662011217949 0 0,0 582.487871891026,615.25210488782 L582.487871891026,547.931678616482 L572.834631666667,543.552477626959 Z" style="fill:none; stroke:grey; stroke-width:1"/> <path d="M597.93305625,516.413205033739 A4.82662011217949,4.82662011217949 0 1,1 607.586296474359,516.413205033739 L607.586296474359,539.243708988788 L597.93305625,543.725987023201 L597.93305625,615.25210488782 A4.82662011217949,4.82662011217949 0 0,0 607.586296474359,615.25210488782 L607.586296474359,543.725987023201 L597.93305625,539.243708988788 Z" style="fill:none; stroke:grey; stroke-width:1"/> <path d="M623.031480833333,291.774274763792 A4.82662011217949,4.82662011217949 0 1,1 632.684721057692,291.774274763792 L632.684721057692,412.064466245503 L623.031480833333,420.191936028131 L623.031480833333,615.25210488782 A4.82662011217949,4.82662011217949 0 0,0 632.684721057692,615.25210488782 L632.684721057692,420.191936028131 L623.031480833333,412.064466245503 Z" style="fill:none; stroke:grey; stroke-width:1"/> <path d="M648.129905416667,502.730770221274 A4.82662011217949,4.82662011217949 0 1,1 657.783145641026,502.730770221274 L657.783145641026,519.929751778737 L648.129905416667,520.414575968067 L648.129905416667,615.25210488782 A4.82662011217949,4.82662011217949 0 0,0 657.783145641026,615.25210488782 L657.783145641026,520.414575968067 L648.129905416667,519.929751778737 Z" style="fill:none; stroke:grey; stroke-width:1"/><text x="73.4927601121795" y="635.078725" font-size="9" font-family="Arial" fill="black" >1</text> <text x="98.5911846955128" y="635.078725" font-size="9" font-family="Arial" fill="black" >2</text> <text x="123.689609278846" y="635.078725" font-size="9" font-family="Arial" fill="black" >3</text> <text x="148.78803386218" y="635.078725" font-size="9" font-family="Arial" fill="black" >4</text> <text x="173.886458445513" y="635.078725" font-size="9" font-family="Arial" fill="black" >5</text> <text x="198.984883028846" y="635.078725" font-size="9" font-family="Arial" fill="black" >6</text> <text x="224.083307612179" y="635.078725" font-size="9" font-family="Arial" fill="black" >7</text> <text x="249.181732195513" y="635.078725" font-size="9" font-family="Arial" fill="black" >8</text> <text x="274.280156778846" y="635.078725" font-size="9" font-family="Arial" fill="black" >9</text> <text x="297.17858136218" y="635.078725" font-size="9" font-family="Arial" fill="black" >10</text> <text x="322.277005945513" y="635.078725" font-size="9" font-family="Arial" fill="black" >11</text> <text x="347.375430528846" y="635.078725" font-size="9" font-family="Arial" fill="black" >12</text> <text x="372.47385511218" y="635.078725" font-size="9" font-family="Arial" fill="black" >13</text> <text x="397.572279695513" y="635.078725" font-size="9" font-family="Arial" fill="black" >14</text> <text x="422.670704278846" y="635.078725" font-size="9" font-family="Arial" fill="black" >15</text> <text x="447.76912886218" y="635.078725" font-size="9" font-family="Arial" fill="black" >16</text> <text x="472.867553445513" y="635.078725" font-size="9" font-family="Arial" fill="black" >17</text> <text x="497.965978028846" y="635.078725" font-size="9" font-family="Arial" fill="black" >18</text> <text x="523.064402612179" y="635.078725" font-size="9" font-family="Arial" fill="black" >19</text> <text x="548.162827195513" y="635.078725" font-size="9" font-family="Arial" fill="black" >20</text> <text x="573.261251778846" y="635.078725" font-size="9" font-family="Arial" fill="black" >21</text> <text x="598.359676362179" y="635.078725" font-size="9" font-family="Arial" fill="black" >22</text> <text x="625.658100945513" y="635.078725" font-size="9" font-family="Arial" fill="black" >X</text> <text x="650.756525528846" y="635.078725" font-size="9" font-family="Arial" fill="black" >Y</text></svg>